<?xml version="1.0" encoding="utf-8"?>
<!-- Generator: Adobe Illustrator 24.0.1, SVG Export Plug-In . SVG Version: 6.00 Build 0)  -->
<svg version="1.1" id="Capa_1" xmlns="http://www.w3.org/2000/svg" xmlns:xlink="http://www.w3.org/1999/xlink" x="0px" y="0px"
	 viewBox="0 0 1000 500" style="enable-background:new 0 0 1000 500;" xml:space="preserve">
<style type="text/css">
	.st0{fill:#70E0B0;}
	.st1{fill:#FFFFFF;}
	.st2{fill:#9A9383;}
	.st3{fill:#07093B;}
	.st4{fill:#25272A;}
	.st5{fill:#D62D2D;}
	.st6{fill:#17292C;}
	.st7{fill:none;}
</style>
<g>
	<g>
		<path class="st0" d="M10.2,29c-0.1,0.1-0.2,0.1-0.3,0.1s-0.2,0-0.3-0.1c-0.2-0.2-0.2-0.4,0-0.6l5-5l-5-5c-0.2-0.2-0.2-0.4,0-0.6
			s0.4-0.2,0.6,0l5.3,5.3c0.2,0.2,0.2,0.4,0,0.6L10.2,29z"/>
	</g>
</g>
<g>
	<g>
		<path class="st0" d="M6.7,17.8c0.1-0.1,0.2-0.1,0.3-0.1c0.1,0,0.2,0,0.3,0.1c0.2,0.2,0.2,0.4,0,0.6l-5,5l5,5
			c0.2,0.2,0.2,0.4,0,0.6s-0.4,0.2-0.6,0l-5.3-5.3c-0.2-0.2-0.2-0.4,0-0.6L6.7,17.8z"/>
	</g>
</g>
<g>
	<path class="st1" d="M728.6,3923c-0.7-0.7-1.6-1.1-2.5-1.1h-12c-1,0-1.8,0.4-2.5,1.1c-0.7,0.7-1.1,1.6-1.1,2.5v12
		c0,1,0.4,1.8,1.1,2.5c0.7,0.7,1.6,1.1,2.5,1.1h12c1,0,1.8-0.4,2.5-1.1c0.7-0.7,1.1-1.6,1.1-2.5v-12
		C729.6,3924.6,729.3,3923.7,728.6,3923z M716.2,3938h-2.9v-8.7h2.9V3938L716.2,3938z M716,3927.7c-0.3,0.3-0.7,0.4-1.2,0.4l0,0
		c-0.5,0-0.9-0.1-1.2-0.4c-0.3-0.3-0.4-0.6-0.4-1.1c0-0.4,0.2-0.8,0.5-1.1s0.7-0.4,1.2-0.4s0.9,0.1,1.2,0.4c0.3,0.3,0.4,0.6,0.5,1.1
		C716.4,3927.1,716.3,3927.5,716,3927.7z M726.6,3938h-2.9v-4.6c0-1.3-0.5-2-1.5-2c-0.4,0-0.7,0.1-0.9,0.3c-0.3,0.2-0.4,0.5-0.6,0.7
		c-0.1,0.1-0.1,0.4-0.1,0.7v4.9h-2.9c0-5.2,0-8.1,0-8.7h2.9v1.2c0.6-0.9,1.5-1.4,2.6-1.4c1,0,1.8,0.3,2.4,1c0.6,0.7,0.9,1.6,0.9,2.9
		L726.6,3938L726.6,3938L726.6,3938z"/>
</g>
<path class="st1" d="M0.2,1l15.6,15.6c0.2,0.2,0.6,0.2,0.8,0L32.2,0.9c0.2-0.2,0.2-0.6,0-0.8C32.2,0,32.1,0,32,0
	c-0.2,0-0.3,0.1-0.5,0.2L16.2,15.5L0.9,0.2C0.7,0,0.4,0,0.1,0.2C-0.1,0.4,0,0.7,0.2,1z"/>
<g>
	<path class="st2" d="M56,33.5l-5.4-5.4c-0.1-0.1-0.3-0.1-0.5,0c-0.1,0.1-0.1,0.3,0,0.5l5.7,5.7c0.1,0.1,0.3,0.1,0.5,0l5.7-5.7
		c0.1-0.1,0.1-0.2,0.1-0.2c0-0.1,0-0.2-0.1-0.2c-0.1-0.1-0.3-0.1-0.5,0L56,33.5z"/>
</g>
<g>
	<path class="st1" d="M23.2,60.2c-0.2,0-0.5-0.1-0.7-0.3c-0.4-0.4-0.4-1,0-1.4l12.9-13.6L22.5,31.4c-0.4-0.4-0.4-1,0-1.4
		s1-0.4,1.4,0l13.6,14.2c0.4,0.4,0.4,1,0,1.4L23.9,59.9C23.7,60.1,23.5,60.2,23.2,60.2z"/>
</g>
<g>
	<path class="st1" d="M16.8,60.3c-0.3,0-0.5-0.1-0.7-0.3L2.5,45.7c-0.4-0.4-0.4-1,0-1.4L16.1,30c0.4-0.4,1-0.4,1.4,0s0.4,1,0,1.4
		L4.6,45.1l12.9,13.6c0.4,0.4,0.4,1,0,1.4C17.2,60.2,17,60.3,16.8,60.3z"/>
</g>
<path class="st3" d="M65.3,40.3C65.2,40.1,65,40,64.8,40H50.5c-0.2,0-0.4,0.1-0.5,0.3s0,0.4,0.1,0.5l7.2,7.2
	c0.1,0.1,0.2,0.1,0.4,0.1s0.3,0,0.4-0.1l7.2-7.2C65.3,40.7,65.4,40.5,65.3,40.3z"/>
<g>
	<g>
		<path class="st0" d="M34.5,9.1c-0.1-0.1-0.1-0.2-0.1-0.3s0-0.2,0.1-0.3c0.2-0.2,0.4-0.2,0.6,0l5,5l5-5c0.2-0.2,0.4-0.2,0.6,0
			s0.2,0.4,0,0.6l-5.3,5.3c-0.2,0.2-0.4,0.2-0.6,0L34.5,9.1z"/>
	</g>
</g>
<g>
	<g>
		<path class="st4" d="M34.5,17.2c-0.1-0.1-0.1-0.2-0.1-0.3s0-0.2,0.1-0.3c0.2-0.2,0.4-0.2,0.6,0l5,5l5-5c0.2-0.2,0.4-0.2,0.6,0
			c0.2,0.2,0.2,0.4,0,0.6l-5.3,5.3c-0.2,0.2-0.4,0.2-0.6,0L34.5,17.2z"/>
	</g>
</g>
<g>
	<g>
		<path class="st1" d="M34.5,1.1c-0.1-0.1-0.1-0.2-0.1-0.3s0-0.2,0.1-0.3c0.2-0.2,0.4-0.2,0.6,0l5,5l5-5c0.2-0.2,0.4-0.2,0.6,0
			s0.2,0.4,0,0.6l-5.3,5.3c-0.2,0.2-0.4,0.2-0.6,0L34.5,1.1z"/>
	</g>
</g>
<g>
	<g>
		<path d="M50.1,1.1C50,1,50,0.9,50,0.8s0-0.2,0.1-0.3c0.2-0.2,0.4-0.2,0.6,0l5,5l5-5c0.2-0.2,0.4-0.2,0.6,0s0.2,0.4,0,0.6L56,6.4
			c-0.2,0.2-0.4,0.2-0.6,0L50.1,1.1z"/>
	</g>
</g>
<path class="st1" d="M17.9,28.3c-0.1,0.1-0.1,0.1-0.2,0.1s-0.2,0-0.3-0.1s-0.1-0.4,0-0.5l4.4-4.4L17.4,19c-0.1-0.1-0.1-0.4,0-0.5
	s0.4-0.1,0.5,0l4.7,4.7c0.1,0.1,0.1,0.4,0,0.5L17.9,28.3z"/>
<path class="st5" d="M25.4,28.3c-0.1,0.1-0.1,0.1-0.2,0.1s-0.2,0-0.3-0.1s-0.1-0.4,0-0.5l4.4-4.4L24.9,19c-0.1-0.1-0.1-0.4,0-0.5
	s0.4-0.1,0.5,0l4.7,4.7c0.1,0.1,0.1,0.4,0,0.5L25.4,28.3z"/>
<g>
	<g>
		<path class="st6" d="M4.5,60.7l4,4c0.1,0.1,0.3,0.1,0.4,0s0.1-0.3,0-0.4l-4.2-4.2c-0.1-0.1-0.3-0.1-0.4,0l-4.2,4.2
			c0,0-0.1,0.1-0.1,0.2s0,0.1,0.1,0.2s0.3,0.1,0.4,0L4.5,60.7z"/>
	</g>
</g>
<g>
	<g>
		<path class="st6" d="M4.6,74.2l-4.1-4.1c-0.1-0.1-0.3-0.1-0.4,0s-0.1,0.3,0,0.4l4.3,4.3c0.1,0.1,0.3,0.1,0.4,0l4.3-4.3
			c0,0,0.1-0.1,0.1-0.2s0-0.1-0.1-0.2s-0.3-0.1-0.4,0L4.6,74.2z"/>
	</g>
</g>
<g>
	<circle class="st7" cx="442.5" cy="12.5" r="12.5"/>
	<path class="st1" d="M448.1,14.5h-3.6v3.4h-4.1v-3.4h-3.5v-3.9h3.5V7.1h4.1v3.4h3.6V14.5z"/>
</g>
<g>
	<g>
		<circle class="st7" cx="412.5" cy="12.5" r="12.5"/>
	</g>
	<path class="st1" d="M408,10.5h9.1v4H408V10.5z"/>
</g>
</svg>
